<svg width="361" height="346" viewBox="0 0 361 346" fill="none" xmlns="http://www.w3.org/2000/svg">
<path opacity="0.5" d="M173.791 71.9838C201.275 71.9838 227.172 84.1675 246.151 103.214V103.27C246.151 94.1238 252.305 87.205 260.81 87.205H262.97C276.391 87.205 279.08 99.8613 279.08 103.855L279.136 245.999C278.202 255.314 288.755 260.129 294.616 254.144C317.397 230.71 344.701 133.555 280.43 77.305C220.49 24.8013 140.041 33.475 97.2683 62.95C51.807 94.36 22.7483 163.739 50.9745 228.944C81.7995 300.033 169.921 321.239 222.368 300.089C248.918 289.368 261.158 325.21 233.562 336.944C191.971 354.685 76.062 352.874 21.927 259.128C-14.6467 195.801 -12.7117 84.4038 84.3308 26.6913C158.502 -17.4875 256.366 -5.24749 315.361 56.3463C377.011 120.798 373.445 241.386 313.257 288.265C285.998 309.584 245.521 288.85 245.813 257.789L245.51 247.664C226.531 266.462 201.275 277.488 173.791 277.488C119.42 277.488 71.5508 229.608 71.5508 175.293C71.5508 120.393 119.42 72.0063 173.791 72.0063V71.9838ZM242.18 171.366C240.121 131.575 210.59 107.613 174.905 107.613H173.555C132.425 107.613 109.576 140.013 109.576 176.744C109.576 217.93 137.172 243.94 173.386 243.94C213.807 243.94 240.346 214.364 242.281 179.376L242.18 171.366Z" fill="#E6E6E6"/>
</svg>
