<svg width="25" height="26" viewBox="0 0 25 26" fill="none" xmlns="http://www.w3.org/2000/svg">
<path d="M21.0938 2.0625H3.90625C2.6123 2.0625 1.5625 3.1123 1.5625 4.40625V21.5938C1.5625 22.8877 2.6123 23.9375 3.90625 23.9375H21.0938C22.3877 23.9375 23.4375 22.8877 23.4375 21.5938V4.40625C23.4375 3.1123 22.3877 2.0625 21.0938 2.0625ZM8.61816 16.0762C6.9043 16.0762 5.51758 14.6895 5.51758 12.9756C5.51758 11.2617 6.9043 9.875 8.61816 9.875C10.332 9.875 11.7188 11.2617 11.7188 12.9756C11.7188 14.6895 10.332 16.0762 8.61816 16.0762ZM16.3818 16.0762C14.668 16.0762 13.2812 14.6895 13.2812 12.9756C13.2812 11.2617 14.668 9.875 16.3818 9.875C18.0957 9.875 19.4824 11.2617 19.4824 12.9756C19.4824 14.6895 18.0957 16.0762 16.3818 16.0762Z" fill="black"/>
</svg>
