<svg width="54" height="38" viewBox="0 0 54 38" fill="none" xmlns="http://www.w3.org/2000/svg">
<g clip-path="url(#clip0_74_185)">
<path d="M8.95548 37.0457C8.29561 36.7641 7.80855 36.3417 7.47862 35.7629C7.16439 35.1997 6.99156 34.48 6.99156 33.6352V32.9156C6.81874 32.9156 6.64591 32.9312 6.45738 32.9469V33.6352C6.45738 34.48 6.30026 35.1997 5.97032 35.7629C5.6561 36.3261 5.15333 36.7485 4.49345 37.0457C3.83358 37.3273 3.01658 37.4681 2.05819 37.4681H0V38H12.3491V37.4681H11.3907C10.4324 37.4681 9.61536 37.3273 8.95548 37.0457Z" fill="black"/>
<path d="M45.8772 21.8394C49.4908 19.4928 52.3503 16.1293 54 12.2808C51.9889 15.9572 48.8938 18.9452 45.2802 20.8382C43.8819 21.6048 42.4521 22.1836 40.991 22.606V4.36476C40.991 3.51997 41.1481 2.80033 41.478 2.23713C41.7923 1.67394 42.295 1.25154 42.9549 0.954302C43.6148 0.672705 44.4318 0.531906 45.3902 0.531906H46.0815V0H36.2933C31.9569 13.3133 23.2214 15.0498 23.2214 15.0498C23.2214 15.0498 31.1714 15.1437 35.8691 7.58748V23.3882C27.8248 23.6542 20.0006 19.2894 15.9313 11.921L10.8566 0H0V0.531906H2.08961C3.04801 0.531906 3.865 0.65706 4.52488 0.923014C5.18475 1.18897 5.84463 1.61136 6.23742 2.09634C6.67734 2.6126 7.00727 3.45739 7.00727 3.45739L21.6031 38H22.8915L26.5679 28.0189C26.3794 27.972 26.2066 27.9251 26.0338 27.8468L24.494 32.0395L20.3148 22.1993C24.9654 24.9839 30.5429 26.1416 35.8848 25.5158V33.6352C35.8848 34.48 35.7277 35.1997 35.3977 35.7629C35.0835 36.3261 34.6279 36.7485 34.0623 37.0457C33.4967 37.3273 32.8211 37.4681 32.0355 37.4681H31.8784V38H46.0972V37.4681H45.4059C44.4475 37.4681 43.6305 37.3273 42.9706 37.0457C42.3107 36.7641 41.8237 36.3417 41.4937 35.7629C41.1795 35.1997 41.0067 34.48 41.0067 33.6352V24.2956C42.7192 23.6855 44.3532 22.872 45.8929 21.8394H45.8772Z" fill="black"/>
</g>
<defs>
<clipPath id="clip0_74_185">
<rect width="54" height="38" fill="white"/>
</clipPath>
</defs>
</svg>
