<?xml version="1.0" encoding="utf-8"?>
<!-- Generator: Adobe Illustrator 28.2.0, SVG Export Plug-In . SVG Version: 6.00 Build 0)  -->
<svg version="1.1" id="Layer_1" xmlns="http://www.w3.org/2000/svg" xmlns:xlink="http://www.w3.org/1999/xlink" x="0px" y="0px"
	 viewBox="0 0 54 38" style="enable-background:new 0 0 54 38;" xml:space="preserve">
<style type="text/css">
	.st0{opacity:0.2;}
	.st1{fill:#FFFFFF;}
</style>
<g class="st0">
	<path class="st1" d="M9,37c-0.7-0.3-1.1-0.7-1.5-1.3C7.2,35.2,7,34.5,7,33.6v-0.7c-0.2,0-0.3,0-0.5,0v0.7c0,0.8-0.2,1.6-0.5,2.1
		c-0.3,0.6-0.8,1-1.5,1.3c-0.7,0.3-1.5,0.4-2.4,0.4H0V38h12.3v-0.5h-1C10.4,37.5,9.6,37.3,9,37z"/>
	<path class="st1" d="M54,12.3c-2,3.7-5.1,6.7-8.7,8.6c-1.4,0.8-2.8,1.3-4.3,1.8V4.4c0-0.8,0.2-1.6,0.5-2.1c0.3-0.6,0.8-1,1.5-1.3
		c0.7-0.3,1.5-0.4,2.4-0.4h0.7V0h-9.8C32,13.3,23.2,15,23.2,15s8,0.1,12.6-7.5v15.8c-8,0.3-15.9-4.1-19.9-11.5L10.9,0H0v0.5h2.1
		c1,0,1.8,0.1,2.4,0.4c0.7,0.3,1.3,0.7,1.7,1.2C6.7,2.6,7,3.5,7,3.5L21.6,38h1.3l3.7-10c-0.2,0-0.4-0.1-0.5-0.2L24.5,32l-4.2-9.8
		c4.7,2.8,10.2,3.9,15.6,3.3v8.1c0,0.8-0.2,1.6-0.5,2.1c-0.3,0.6-0.8,1-1.3,1.3c-0.6,0.3-1.2,0.4-2,0.4h-0.2V38h14.2v-0.5h-0.7
		c-1,0-1.8-0.1-2.4-0.4c-0.7-0.3-1.1-0.7-1.5-1.3c-0.3-0.6-0.5-1.3-0.5-2.1v-9.3c1.7-0.6,3.3-1.4,4.9-2.5h0
		C49.5,19.5,52.4,16.1,54,12.3z"/>
</g>
</svg>
