<svg width="32" height="32" viewBox="0 0 32 32" fill="none" xmlns="http://www.w3.org/2000/svg">
<path d="M5.30695 25.9475C4.91592 25.7845 4.62729 25.5399 4.43177 25.2048C4.24556 24.8788 4.14315 24.4621 4.14315 23.973V23.5564C4.04073 23.5564 3.93832 23.5655 3.82659 23.5745V23.973C3.82659 24.4621 3.73349 24.8788 3.53797 25.2048C3.35176 25.5309 3.05383 25.7754 2.66279 25.9475C2.27175 26.1105 1.78761 26.1921 1.21967 26.1921H0V26.5H7.31801V26.1921H6.75007C6.18214 26.1921 5.69799 26.1105 5.30695 25.9475Z" fill="black"/>
<path d="M27.1865 17.1439C29.3279 15.7853 31.0224 13.838 32 11.6099C30.8083 13.7384 28.9741 15.4683 26.8327 16.5642C26.0041 17.008 25.1568 17.3431 24.291 17.5877V7.02697C24.291 6.53788 24.3841 6.12124 24.5796 5.79518C24.7658 5.46912 25.0637 5.22458 25.4548 5.05249C25.8458 4.88946 26.3299 4.80795 26.8979 4.80795H27.3075V4.5H21.5071C18.9374 12.2077 13.7608 13.2131 13.7608 13.2131C13.7608 13.2131 18.4719 13.2674 21.2557 8.89275V18.0406C16.4888 18.1945 11.8522 15.6676 9.44079 11.4016L6.43352 4.5H0V4.80795H1.23829C1.80623 4.80795 2.29037 4.8804 2.68141 5.03438C3.07245 5.18835 3.46349 5.43289 3.69625 5.71367C3.95694 6.01256 4.15246 6.50165 4.15246 6.50165L12.8019 26.5H13.5653L15.744 20.7215C15.6322 20.6943 15.5298 20.6671 15.4274 20.6219L14.515 23.0492L12.0384 17.3522C14.7943 18.9644 18.0995 19.6346 21.2651 19.2723V23.973C21.2651 24.4621 21.172 24.8788 20.9764 25.2048C20.7902 25.5309 20.5202 25.7754 20.185 25.9475C19.8499 26.1105 19.4495 26.1921 18.984 26.1921H18.8909V26.5H27.3168V26.1921H26.9072C26.3392 26.1921 25.8551 26.1105 25.4641 25.9475C25.073 25.7845 24.7844 25.5399 24.5889 25.2048C24.4027 24.8788 24.3003 24.4621 24.3003 23.973V18.5659C25.3151 18.2126 26.2834 17.7417 27.1958 17.1439H27.1865Z" fill="black"/>
</svg>
